<svg width="914" height="214" viewBox="0 0 914 214" fill="none" xmlns="http://www.w3.org/2000/svg">
<path d="M166.989 189.684C157.859 189.684 149.583 187.722 142.16 183.797C134.823 179.787 129.021 174.284 124.755 167.287C120.575 160.206 118.484 152.228 118.484 143.355C118.484 134.482 120.575 126.547 124.755 119.551C129.021 112.469 134.823 106.966 142.16 103.042C149.583 99.0316 157.902 97.0266 167.117 97.0266C174.881 97.0266 181.877 98.3917 188.105 101.122C194.419 103.852 199.709 107.777 203.975 112.896L190.665 125.182C184.607 118.186 177.099 114.688 168.14 114.688C162.595 114.688 157.646 115.925 153.295 118.399C148.943 120.788 145.531 124.158 143.056 128.51C140.667 132.861 139.473 137.809 139.473 143.355C139.473 148.901 140.667 153.85 143.056 158.201C145.531 162.552 148.943 165.965 153.295 168.439C157.646 170.828 162.595 172.023 168.14 172.023C177.099 172.023 184.607 168.482 190.665 161.4L203.975 173.686C199.709 178.891 194.419 182.858 188.105 185.589C181.792 188.319 174.753 189.684 166.989 189.684Z" fill="#4B4B4B"/>
<path d="M246.956 189.172C239.704 189.172 233.177 187.679 227.375 184.693C221.659 181.621 217.179 177.398 213.937 172.023C210.695 166.648 209.074 160.547 209.074 153.722C209.074 146.896 210.695 140.796 213.937 135.42C217.179 130.045 221.659 125.865 227.375 122.878C233.177 119.807 239.704 118.271 246.956 118.271C254.208 118.271 260.692 119.807 266.409 122.878C272.125 125.865 276.604 130.045 279.847 135.42C283.089 140.796 284.71 146.896 284.71 153.722C284.71 160.547 283.089 166.648 279.847 172.023C276.604 177.398 272.125 181.621 266.409 184.693C260.692 187.679 254.208 189.172 246.956 189.172ZM246.956 172.791C252.075 172.791 256.256 171.084 259.498 167.671C262.825 164.173 264.489 159.523 264.489 153.722C264.489 147.92 262.825 143.313 259.498 139.9C256.256 136.402 252.075 134.653 246.956 134.653C241.837 134.653 237.613 136.402 234.286 139.9C230.958 143.313 229.295 147.92 229.295 153.722C229.295 159.523 230.958 164.173 234.286 167.671C237.613 171.084 241.837 172.791 246.956 172.791Z" fill="#4B4B4B"/>
<path d="M364.521 119.295L335.47 188.148H314.865L285.942 119.295H306.546L325.615 166.136L345.324 119.295H364.521Z" fill="#4B4B4B"/>
<path d="M372.668 119.295H392.633V188.148H372.668V119.295ZM382.65 109.697C378.982 109.697 375.995 108.63 373.692 106.497C371.388 104.364 370.236 101.719 370.236 98.5623C370.236 95.4055 371.388 92.7606 373.692 90.6276C375.995 88.4946 378.982 87.4281 382.65 87.4281C386.319 87.4281 389.305 88.4519 391.609 90.4996C393.912 92.5473 395.064 95.1069 395.064 98.1784C395.064 101.506 393.912 104.279 391.609 106.497C389.305 108.63 386.319 109.697 382.65 109.697Z" fill="#4B4B4B"/>
<path d="M481.295 93.1872V188.148H462.226V180.213C457.277 186.186 450.11 189.172 440.725 189.172C434.241 189.172 428.354 187.722 423.064 184.821C417.859 181.92 413.764 177.782 410.778 172.407C407.792 167.031 406.299 160.803 406.299 153.722C406.299 146.64 407.792 140.412 410.778 135.037C413.764 129.661 417.859 125.523 423.064 122.623C428.354 119.722 434.241 118.271 440.725 118.271C449.513 118.271 456.381 121.044 461.33 126.59V93.1872H481.295ZM444.18 172.791C449.214 172.791 453.395 171.084 456.722 167.671C460.05 164.173 461.714 159.523 461.714 153.722C461.714 147.92 460.05 143.313 456.722 139.9C453.395 136.402 449.214 134.653 444.18 134.653C439.061 134.653 434.838 136.402 431.511 139.9C428.183 143.313 426.519 147.92 426.519 153.722C426.519 159.523 428.183 164.173 431.511 167.671C434.838 171.084 439.061 172.791 444.18 172.791Z" fill="#4B4B4B"/>
<path d="M566.962 141.564C572.081 143.185 576.091 145.915 578.992 149.754C581.893 153.508 583.343 158.158 583.343 163.704C583.343 171.553 580.272 177.611 574.129 181.877C568.071 186.058 559.198 188.148 547.509 188.148H501.18V98.5623H544.949C555.87 98.5623 564.232 100.653 570.033 104.833C575.921 109.014 578.864 114.688 578.864 121.855C578.864 126.206 577.798 130.088 575.665 133.501C573.617 136.914 570.716 139.601 566.962 141.564ZM521.785 114.176V135.293H542.39C547.509 135.293 551.391 134.397 554.036 132.605C556.681 130.813 558.003 128.168 558.003 124.67C558.003 121.172 556.681 118.57 554.036 116.863C551.391 115.072 547.509 114.176 542.39 114.176H521.785ZM545.973 172.535C551.434 172.535 555.529 171.639 558.259 169.847C561.075 168.055 562.483 165.282 562.483 161.528C562.483 154.106 556.98 150.394 545.973 150.394H521.785V172.535H545.973Z" fill="#4B4B4B"/>
<path d="M616.701 128.382C619.09 125.054 622.289 122.537 626.3 120.831C630.395 119.124 635.087 118.271 640.377 118.271V136.7C638.159 136.53 636.666 136.444 635.898 136.444C630.182 136.444 625.702 138.065 622.46 141.308C619.218 144.464 617.597 149.242 617.597 155.641V188.148H597.632V119.295H616.701V128.382Z" fill="#4B4B4B"/>
<path d="M652.248 119.295H672.213V188.148H652.248V119.295ZM662.231 109.697C658.562 109.697 655.576 108.63 653.272 106.497C650.969 104.364 649.817 101.719 649.817 98.5623C649.817 95.4055 650.969 92.7606 653.272 90.6276C655.576 88.4946 658.562 87.4281 662.231 87.4281C665.9 87.4281 668.886 88.4519 671.189 90.4996C673.493 92.5473 674.645 95.1069 674.645 98.1784C674.645 101.506 673.493 104.279 671.189 106.497C668.886 108.63 665.9 109.697 662.231 109.697Z" fill="#4B4B4B"/>
<path d="M761.771 119.295V176.63C761.771 189.257 758.486 198.642 751.917 204.785C745.347 210.928 735.748 214 723.121 214C716.466 214 710.153 213.189 704.18 211.568C698.208 209.947 693.259 207.601 689.335 204.53L697.269 190.196C700.17 192.585 703.839 194.462 708.276 195.827C712.712 197.277 717.149 198.003 721.585 198.003C728.496 198.003 733.573 196.424 736.815 193.267C740.142 190.196 741.806 185.503 741.806 179.19V176.246C736.602 181.962 729.349 184.821 720.05 184.821C713.736 184.821 707.934 183.456 702.644 180.725C697.44 177.91 693.302 173.985 690.23 168.951C687.159 163.917 685.623 158.116 685.623 151.546C685.623 144.976 687.159 139.175 690.23 134.141C693.302 129.107 697.44 125.225 702.644 122.495C707.934 119.679 713.736 118.271 720.05 118.271C730.032 118.271 737.625 121.556 742.83 128.126V119.295H761.771ZM724.017 168.439C729.307 168.439 733.615 166.903 736.943 163.832C740.356 160.675 742.062 156.58 742.062 151.546C742.062 146.512 740.356 142.459 736.943 139.388C733.615 136.231 729.307 134.653 724.017 134.653C718.727 134.653 714.376 136.231 710.963 139.388C707.55 142.459 705.844 146.512 705.844 151.546C705.844 156.58 707.55 160.675 710.963 163.832C714.376 166.903 718.727 168.439 724.017 168.439Z" fill="#4B4B4B"/>
<path d="M822.202 118.271C830.734 118.271 837.603 120.831 842.807 125.95C848.097 131.069 850.742 138.663 850.742 148.73V188.148H830.777V151.802C830.777 146.341 829.583 142.289 827.194 139.644C824.805 136.914 821.349 135.548 816.827 135.548C811.793 135.548 807.783 137.127 804.797 140.284C801.811 143.355 800.318 147.962 800.318 154.106V188.148H780.353V93.1872H800.318V126.462C802.963 123.817 806.162 121.812 809.916 120.447C813.67 118.996 817.766 118.271 822.202 118.271Z" fill="#4B4B4B"/>
<path d="M913.248 184.821C911.286 186.271 908.854 187.38 905.953 188.148C903.138 188.831 900.151 189.172 896.995 189.172C888.804 189.172 882.447 187.082 877.926 182.901C873.489 178.72 871.271 172.577 871.271 164.472V136.188H860.648V120.831H871.271V104.065H891.235V120.831H908.385V136.188H891.235V164.216C891.235 167.117 891.961 169.378 893.411 170.999C894.947 172.535 897.08 173.302 899.81 173.302C902.967 173.302 905.654 172.449 907.873 170.743L913.248 184.821Z" fill="#4B4B4B"/>
<path d="M5.75875 186.737C-4.13992 150.836 -1.21367 112.659 14.0441 78.6421C29.3019 44.6255 55.9579 16.8504 89.5177 0L118.206 55.8408C97.642 66.1661 81.3082 83.1857 71.9588 104.03C62.6094 124.874 60.8163 148.268 66.8818 170.267L5.75875 186.737Z" fill="url(#paint0_linear)"/>
<path d="M83.7081 165.811C77.501 147.601 78.2796 127.771 85.896 110.091C93.5124 92.4117 107.435 78.1155 125.017 69.9212L135.156 91.1823C122.849 96.9184 113.103 106.926 107.771 119.301C102.44 131.677 101.895 145.558 106.24 158.306L83.7081 165.811Z" fill="url(#paint1_linear)"/>
<defs>
<linearGradient id="paint0_linear" x1="67.5782" y1="0" x2="67.5782" y2="186.737" gradientUnits="userSpaceOnUse">
<stop stop-color="#5A4DCC"/>
<stop offset="1" stop-color="#7D75C5"/>
</linearGradient>
<linearGradient id="paint1_linear" x1="67.5782" y1="0" x2="67.5782" y2="186.737" gradientUnits="userSpaceOnUse">
<stop stop-color="#5A4DCC"/>
<stop offset="1" stop-color="#7D75C5"/>
</linearGradient>
</defs>
</svg>
