  <svg width="100%" height="200" viewBox="0 0 1440 200" fill="none" xmlns="http://www.w3.org/2000/svg">
<mask id="mask0" mask-type="alpha" maskUnits="userSpaceOnUse" x="0" y="0" width="100%" height="200">
<path d="M248.741 12.7924C194.398 -2.69304 60.2705 -0.941712 0 1.86963V200H1440V104.046C1418.86 93.7682 1361.78 71.8858 1302.64 66.5765C1228.72 59.9399 1044.91 62.2904 899.063 73.2132C753.215 84.1359 650.323 110.682 541.436 104.046C432.549 97.4091 316.67 32.1491 248.741 12.7924Z" fill="url(#paint0_linear)"/>
</mask>
<g mask="url(#mask0)">
<g filter="url(#filter0_b)">
<rect width="100%" height="200" transform="matrix(1 0 0 -1 0 200)" fill="url(#paint1_linear)"/>
</g>
</g>
<defs>
<filter id="filter0_b" x="-40" y="-40" width="1520" height="280" filterUnits="userSpaceOnUse" color-interpolation-filters="sRGB">
<feFlood flood-opacity="0" result="BackgroundImageFix"/>
<feGaussianBlur in="BackgroundImage" stdDeviation="20"/>
<feComposite in2="SourceAlpha" operator="in" result="effect1_backgroundBlur"/>
<feBlend mode="normal" in="SourceGraphic" in2="effect1_backgroundBlur" result="shape"/>
</filter>
<linearGradient id="paint0_linear" x1="720" y1="0" x2="720" y2="515.789" gradientUnits="userSpaceOnUse">
<stop stop-color="#F5F5F5"/>
<stop offset="1" stop-color="#A397F3"/>
</linearGradient>
<linearGradient id="paint1_linear" x1="720" y1="0" x2="720" y2="200" gradientUnits="userSpaceOnUse">
<stop stop-color="#5A4DCC"/>
<stop offset="1" stop-color="#7D75C5"/>
</linearGradient>
</defs>
</svg>
